<?xml version="1.0" standalone="no"?>
<!DOCTYPE svg PUBLIC "-//W3C//DTD SVG 20010904//EN"
 "http://www.w3.org/TR/2001/REC-SVG-20010904/DTD/svg10.dtd">
<svg version="1.0" xmlns="http://www.w3.org/2000/svg"
 width="403.000000pt" height="403.000000pt" viewBox="0 0 403.000000 403.000000"
 preserveAspectRatio="xMidYMid meet">
<metadata>
Created by potrace 1.14, written by Peter Selinger 2001-2017
</metadata>
<g transform="translate(0.000000,403.000000) scale(0.100000,-0.100000)"
fill="#000000" stroke="none">
<path d="M580 3583 c-42 -8 -81 -44 -106 -97 l-24 -51 0 -1381 0 -1382 22 -42
c13 -24 38 -54 57 -69 l34 -26 1398 -3 c1390 -2 1397 -2 1445 18 46 20 65 38
92 89 19 36 18 2798 -2 2845 -16 39 -59 84 -93 97 -24 9 -2773 11 -2823 2z
m1290 -1518 c0 -311 -3 -565 -6 -565 -13 0 -1124 566 -1124 573 0 4 6 7 14 7
8 0 172 79 365 175 193 96 353 175 356 175 2 0 31 16 65 36 98 57 304 164 318
164 9 0 12 -120 12 -565z m540 -134 l0 -170 243 118 c133 65 278 136 323 158
l81 40 76 -36 c43 -20 76 -40 74 -45 -3 -11 -66 -43 -582 -304 -197 -101 -365
-180 -372 -178 -10 4 -13 68 -13 296 l0 290 85 0 85 0 0 -169z"/>
<path d="M1375 2226 l-310 -154 309 -151 c170 -83 311 -150 313 -148 2 2 2
140 1 306 l-3 302 -310 -155z"/>
</g>
</svg>
